<svg width="599" height="209" viewBox="0 0 599 209" fill="none" xmlns="http://www.w3.org/2000/svg">
<path d="M210.723 36.888C210.723 44.5168 212.847 48.3312 217.097 48.3312C216.943 49.304 216.099 49.7904 214.563 49.7904C210.876 49.7904 208.393 47.4608 207.113 42.8016C206.601 40.8048 206.345 38.4496 206.345 35.736C206.345 32.9712 206.934 29.6688 208.111 25.8288C210.262 18.9168 213.615 14.0784 218.172 11.3136C220.425 9.9312 222.832 9.24 225.391 9.24C230.307 9.24 233.302 12.184 234.377 18.072C234.684 19.7104 234.838 21.4256 234.838 23.2176C234.838 28.2864 233.635 34.0976 231.228 40.6512C227.951 49.7136 223.599 56.7024 218.172 61.6176C214.23 65.2528 210.236 67.0704 206.191 67.0704C198.665 67.0704 193.468 63.5888 190.601 56.6256C189.116 53.0928 188.374 49.3296 188.374 45.336C188.374 41.2912 188.886 37.144 189.91 32.8944C192.163 23.5248 196.207 15.7424 202.044 9.5472C207.881 3.3008 214.409 0.177601 221.628 0.177601C222.038 0.177601 222.371 0.305601 222.627 0.561602C222.883 0.817602 223.036 1.2272 223.087 1.7904C216.022 1.7904 209.673 5.7584 204.041 13.6944C199.075 20.7088 195.823 28.8752 194.287 38.1936C193.775 41.3168 193.52 44.2096 193.52 46.872C193.52 52.0432 194.569 56.3952 196.668 59.928C198.767 63.4608 201.967 65.2272 206.268 65.2272C212.003 65.2272 217.43 61.336 222.55 53.5536C227.056 46.6928 230.127 38.9616 231.766 30.36C232.38 27.1856 232.688 24.3952 232.688 21.9888C232.688 18.2 231.945 15.3328 230.46 13.3872C229.283 12.0048 227.823 11.3136 226.083 11.3136C221.526 11.3136 217.737 14.4112 214.716 20.6064C212.054 26.0336 210.723 31.4608 210.723 36.888ZM185.455 70.5264C185.711 69.2976 186.505 68.6832 187.836 68.6832C189.167 68.6832 190.857 69.1952 192.905 70.2192C195.004 71.2944 196.976 72.4464 198.819 73.6752C200.662 74.904 202.889 76.0304 205.5 77.0544C208.163 78.1296 210.697 78.6672 213.104 78.6672C217.865 78.6672 221.014 77.1824 222.55 74.2128C223.011 73.2912 223.241 72.4464 223.241 71.6784C223.241 70.9104 223.011 70.2192 222.55 69.6048C222.14 69.0928 221.628 68.8112 221.014 68.76C221.27 67.7872 221.91 67.3008 222.934 67.3008C224.931 67.3008 226.262 68.3504 226.927 70.4496C227.183 71.2176 227.311 71.96 227.311 72.6768C227.311 74.3664 226.671 76.0048 225.391 77.592C223.241 80.3568 219.785 81.7392 215.023 81.7392C212.207 81.7392 209.315 81.1504 206.345 79.9728C203.375 78.7952 200.867 77.5152 198.819 76.1328C193.289 72.3952 188.835 70.5264 185.455 70.5264ZM262.646 61.1568C263.977 61.1568 265.846 59.3904 268.252 55.8576C270.659 52.3248 272.732 48.792 274.473 45.2592L277.084 39.96H279.158C278.851 40.5744 278.441 41.4192 277.929 42.4944C277.468 43.5184 276.521 45.3872 275.088 48.1008C273.654 50.7632 272.272 53.1184 270.94 55.1664C269.66 57.2144 268.201 59.0832 266.563 60.7728C264.976 62.4112 263.465 63.2304 262.032 63.2304C260.598 63.2304 259.42 62.7952 258.499 61.9248C257.372 60.7984 256.809 58.8272 256.809 56.0112C256.809 53.1952 257.296 49.4832 258.268 44.8752H257.731C251.843 56.9584 246.953 63 243.062 63C239.632 63 237.916 60.7728 237.916 56.3184C237.916 53.0928 239.299 46.6672 242.064 37.0416C242.678 34.84 243.139 33.2016 243.446 32.1264C243.753 31 244.24 30.4368 244.905 30.4368C245.827 30.4368 246.492 31.1024 246.902 32.4336C247.107 32.9968 247.209 33.7136 247.209 34.584C247.209 35.4032 247.081 36.3248 246.825 37.3488C246.569 38.3216 246.032 40.216 245.212 43.032C243.011 50.6096 241.91 55.704 241.91 58.3152C241.91 60.0048 242.422 60.8496 243.446 60.8496C244.726 60.8496 246.236 59.6976 247.977 57.3936C249.82 54.9872 251.331 52.6576 252.508 50.4048C253.686 48.152 254.633 46.3088 255.35 44.8752C256.067 43.4416 256.784 41.9568 257.5 40.4208C258.217 38.8336 258.78 37.528 259.19 36.504C259.651 35.48 260.086 34.5072 260.496 33.5856C260.905 32.6128 261.11 32.1008 261.11 32.0496C261.571 30.9744 262.083 30.4368 262.646 30.4368C263.568 30.4368 264.233 31.1024 264.643 32.4336C264.848 33.048 264.95 33.7904 264.95 34.6608C264.95 35.5312 264.848 36.4528 264.643 37.4256C264.438 38.3472 264.105 39.7296 263.644 41.5728C263.184 43.416 262.825 44.9264 262.569 46.104C262.313 47.2816 262.006 48.7152 261.648 50.4048C261.136 53.2208 260.88 55.7296 260.88 57.9312C260.88 60.0816 261.468 61.1568 262.646 61.1568ZM285.343 16.9968C286.52 16.9968 287.109 17.7904 287.109 19.3776C287.109 20.9648 286.341 22.2448 284.805 23.2176C284.037 23.7296 283.371 23.9856 282.808 23.9856C281.989 23.9856 281.503 23.7296 281.349 23.2176L281.272 22.9872C281.733 22.9872 282.066 22.5008 282.271 21.528C282.475 20.504 282.783 19.5056 283.192 18.5328C283.653 17.5088 284.37 16.9968 285.343 16.9968ZM280.427 61.1568C281.759 61.1568 283.627 59.3904 286.034 55.8576C288.44 52.3248 290.514 48.792 292.255 45.2592L294.866 39.96H296.939C296.632 40.5744 296.223 41.4192 295.711 42.4944C295.25 43.5184 294.303 45.3872 292.869 48.1008C291.435 50.7632 290.053 53.1184 288.722 55.1664C287.442 57.2144 285.983 59.0832 284.344 60.7728C282.757 62.4112 281.375 63.2304 280.197 63.2304C276.408 63.2304 274.514 60.7728 274.514 55.8576C274.514 52.1712 275.563 46.1808 277.663 37.8864C277.867 37.016 278.021 36.3504 278.123 35.8896C278.277 35.4288 278.431 34.84 278.584 34.1232C278.738 33.3552 278.891 32.664 279.045 32.0496C279.301 30.9744 279.762 30.4368 280.427 30.4368C281.349 30.4368 282.015 31.1024 282.424 32.4336C282.629 33.048 282.731 33.7904 282.731 34.6608C282.731 35.5312 282.629 36.4528 282.424 37.4256C282.219 38.3472 281.887 39.7296 281.426 41.5728C280.965 43.416 280.607 44.9264 280.351 46.104C280.095 47.2816 279.813 48.7152 279.506 50.4048C278.943 53.2208 278.661 55.7296 278.661 57.9312C278.661 60.0816 279.25 61.1568 280.427 61.1568ZM297.054 59.2368C296.03 59.2368 295.057 59.8768 294.136 61.1568C293.163 62.3856 292.292 63 291.524 63C290.756 63 290.372 62.8208 290.372 62.4624C290.372 62.3088 290.424 62.1808 290.526 62.0784C297.438 53.3744 304.452 45.2592 311.569 37.7328C310.033 38.1424 308.497 38.3472 306.961 38.3472C302.507 38.3472 299.716 37.0416 298.59 34.4304C298.334 33.7648 298.206 33.048 298.206 32.28C298.206 31.4608 298.564 30.6416 299.281 29.8224C300.049 28.952 300.894 28.5168 301.816 28.5168C302.737 28.5168 303.403 28.696 303.812 29.0544C304.273 29.3616 304.58 29.848 304.734 30.5136C303.966 30.5136 303.48 30.9488 303.275 31.8192C303.224 32.0752 303.198 32.3056 303.198 32.5104C303.198 33.5344 303.915 34.328 305.348 34.8912C306.27 35.2496 307.627 35.4288 309.419 35.4288C311.262 35.4288 313.054 35.096 314.795 34.4304C317.611 31.7168 319.428 30.36 320.248 30.36C320.657 30.36 320.862 30.5136 320.862 30.8208C320.862 31.128 320.478 31.8192 319.71 32.8944C318.942 33.9696 317.483 35.096 315.332 36.2736C311.544 40.472 305.553 47.4352 297.361 57.1632C297.566 57.112 297.976 57.0864 298.59 57.0864C299.256 57.0864 300.612 57.5728 302.66 58.5456C304.76 59.5184 306.628 60.0048 308.267 60.0048C311.236 60.0048 313.233 58.8016 314.257 56.3952C314.564 55.6272 314.718 54.9104 314.718 54.2448C314.718 53.528 314.539 52.9392 314.18 52.4784C313.822 52.0176 313.387 51.7872 312.875 51.7872C312.977 51.1216 313.361 50.7888 314.027 50.7888C315.921 50.7888 316.868 52.2736 316.868 55.2432C316.868 57.3936 316.049 59.5184 314.411 61.6176C312.772 63.7168 310.468 64.7664 307.499 64.7664C306.065 64.7664 304.785 64.4592 303.659 63.8448C302.532 63.2816 301.688 62.6672 301.124 62.0016C299.486 60.1584 298.129 59.2368 297.054 59.2368ZM328.46 59.2368C327.436 59.2368 326.463 59.8768 325.542 61.1568C324.569 62.3856 323.699 63 322.931 63C322.163 63 321.779 62.8208 321.779 62.4624C321.779 62.3088 321.83 62.1808 321.932 62.0784C328.844 53.3744 335.859 45.2592 342.975 37.7328C341.439 38.1424 339.903 38.3472 338.367 38.3472C333.913 38.3472 331.123 37.0416 329.996 34.4304C329.74 33.7648 329.612 33.048 329.612 32.28C329.612 31.4608 329.971 30.6416 330.687 29.8224C331.455 28.952 332.3 28.5168 333.222 28.5168C334.143 28.5168 334.809 28.696 335.219 29.0544C335.679 29.3616 335.987 29.848 336.14 30.5136C335.372 30.5136 334.886 30.9488 334.681 31.8192C334.63 32.0752 334.604 32.3056 334.604 32.5104C334.604 33.5344 335.321 34.328 336.755 34.8912C337.676 35.2496 339.033 35.4288 340.825 35.4288C342.668 35.4288 344.46 35.096 346.201 34.4304C349.017 31.7168 350.835 30.36 351.654 30.36C352.063 30.36 352.268 30.5136 352.268 30.8208C352.268 31.128 351.884 31.8192 351.116 32.8944C350.348 33.9696 348.889 35.096 346.739 36.2736C342.95 40.472 336.959 47.4352 328.767 57.1632C328.972 57.112 329.382 57.0864 329.996 57.0864C330.662 57.0864 332.019 57.5728 334.067 58.5456C336.166 59.5184 338.035 60.0048 339.673 60.0048C342.643 60.0048 344.639 58.8016 345.663 56.3952C345.971 55.6272 346.124 54.9104 346.124 54.2448C346.124 53.528 345.945 52.9392 345.587 52.4784C345.228 52.0176 344.793 51.7872 344.281 51.7872C344.383 51.1216 344.767 50.7888 345.433 50.7888C347.327 50.7888 348.275 52.2736 348.275 55.2432C348.275 57.3936 347.455 59.5184 345.817 61.6176C344.179 63.7168 341.875 64.7664 338.905 64.7664C337.471 64.7664 336.191 64.4592 335.065 63.8448C333.939 63.2816 333.094 62.6672 332.531 62.0016C330.892 60.1584 329.535 59.2368 328.46 59.2368ZM365.78 16.9968C366.958 16.9968 367.546 17.7904 367.546 19.3776C367.546 20.9648 366.778 22.2448 365.242 23.2176C364.474 23.7296 363.809 23.9856 363.246 23.9856C362.426 23.9856 361.94 23.7296 361.786 23.2176L361.71 22.9872C362.17 22.9872 362.503 22.5008 362.708 21.528C362.913 20.504 363.22 19.5056 363.63 18.5328C364.09 17.5088 364.807 16.9968 365.78 16.9968ZM360.865 61.1568C362.196 61.1568 364.065 59.3904 366.471 55.8576C368.878 52.3248 370.951 48.792 372.692 45.2592L375.303 39.96H377.377C377.07 40.5744 376.66 41.4192 376.148 42.4944C375.687 43.5184 374.74 45.3872 373.306 48.1008C371.873 50.7632 370.49 53.1184 369.159 55.1664C367.879 57.2144 366.42 59.0832 364.782 60.7728C363.194 62.4112 361.812 63.2304 360.634 63.2304C356.846 63.2304 354.951 60.7728 354.951 55.8576C354.951 52.1712 356.001 46.1808 358.1 37.8864C358.305 37.016 358.458 36.3504 358.561 35.8896C358.714 35.4288 358.868 34.84 359.022 34.1232C359.175 33.3552 359.329 32.664 359.482 32.0496C359.738 30.9744 360.199 30.4368 360.865 30.4368C361.786 30.4368 362.452 31.1024 362.862 32.4336C363.066 33.048 363.169 33.7904 363.169 34.6608C363.169 35.5312 363.066 36.4528 362.862 37.4256C362.657 38.3472 362.324 39.7296 361.863 41.5728C361.402 43.416 361.044 44.9264 360.788 46.104C360.532 47.2816 360.25 48.7152 359.943 50.4048C359.38 53.2208 359.098 55.7296 359.098 57.9312C359.098 60.0816 359.687 61.1568 360.865 61.1568ZM377.031 52.0944C377.031 58.0848 379.104 61.08 383.251 61.08C384.89 61.08 386.605 60.3632 388.397 58.9296C390.24 57.4448 391.904 55.6784 393.389 53.6304C396.666 48.92 398.97 45.08 400.301 42.1104L401.299 39.96H403.373C402.503 42.008 401.223 44.5424 399.533 47.5632C397.844 50.5328 396.231 53.0416 394.695 55.0896C393.159 57.1376 391.341 59.0064 389.242 60.696C387.143 62.3344 385.146 63.1536 383.251 63.1536C377.927 63.1536 374.548 60.7216 373.114 55.8576C372.653 54.3216 372.423 52.4016 372.423 50.0976C372.423 47.7424 373.14 44.8752 374.573 41.496C376.672 36.4784 379.539 33.0992 383.175 31.3584C384.608 30.6928 386.016 30.36 387.399 30.36C388.832 30.36 389.959 30.744 390.778 31.512C391.751 32.4336 392.237 33.5088 392.237 34.7376C392.237 35.9152 392.109 37.016 391.853 38.04C391.597 39.064 391.059 39.9856 390.24 40.8048C389.472 41.5728 388.602 41.9568 387.629 41.9568C387.22 41.9568 386.912 41.6752 386.707 41.112C387.117 41.112 387.655 40.3952 388.32 38.9616C389.037 37.4768 389.396 36.0176 389.396 34.584C389.396 33.1504 388.781 32.4336 387.552 32.4336C384.89 32.4336 382.458 34.6608 380.256 39.1152C378.106 43.5696 377.031 47.896 377.031 52.0944ZM418.069 14.8464C419.912 10.0336 420.834 6.7568 420.834 5.016C420.834 3.2752 420.399 2.3536 419.528 2.2512C417.122 2.2512 414.613 6.1168 412.002 13.848C409.442 21.528 407.42 29.5152 405.935 37.8096C404.501 46.0528 403.784 51.8896 403.784 55.32C403.784 61.1056 405.218 63.9984 408.085 63.9984C408.085 64.3568 407.855 64.7152 407.394 65.0736C406.933 65.432 406.396 65.6112 405.781 65.6112C401.583 65.6112 399.484 61.848 399.484 54.3216C399.484 51.5568 399.996 47.3328 401.02 41.6496C402.044 35.9152 403.375 29.9248 405.013 23.6784C406.652 17.432 408.776 12.0048 411.388 7.3968C413.999 2.7376 416.661 0.407999 419.375 0.407999C421.525 0.407999 422.6 1.7648 422.6 4.4784C422.6 6.5264 421.96 9.3936 420.68 13.08C418.223 20.248 414.69 27.416 410.082 34.584C408.853 36.4784 407.752 38.0144 406.78 39.192C406.524 39.4992 406.396 39.3968 406.396 38.8848C406.344 37.912 406.575 37.0672 407.087 36.3504C411.285 30.0528 414.946 22.8848 418.069 14.8464ZM421.357 51.7872C421.357 57.9824 423.559 61.08 427.962 61.08C429.601 61.08 431.316 60.3632 433.108 58.9296C434.951 57.4448 436.615 55.6784 438.1 53.6304C441.377 48.92 443.681 45.08 445.012 42.1104L446.01 39.96H448.084C447.213 42.008 445.933 44.5424 444.244 47.5632C442.554 50.5328 440.941 53.0416 439.405 55.0896C437.869 57.1376 436.052 59.0064 433.953 60.696C431.853 62.3344 429.857 63.1536 427.962 63.1536C420.385 63.1536 416.596 58.904 416.596 50.4048C416.596 46.4624 417.748 42.52 420.052 38.5776C423.226 33.0992 427.143 30.36 431.802 30.36C435.079 30.36 436.717 32.152 436.717 35.736C436.717 38.3984 435.693 41.1632 433.646 44.0304C430.778 47.9216 427.425 49.8928 423.585 49.944C423.021 49.944 422.663 49.688 422.509 49.176L422.433 48.8688C425.095 48.8688 427.629 47.128 430.036 43.6464C432.493 40.1136 433.722 37.1696 433.722 34.8144C433.722 33.2272 433.108 32.4336 431.879 32.4336C429.166 32.4336 426.631 34.8144 424.276 39.576C422.33 43.6208 421.357 47.6912 421.357 51.7872ZM40.8147 122.547C41.5315 122.547 42.0179 122.854 42.2739 123.469L42.3507 123.853C38.5619 123.853 36.1299 127.667 35.0547 135.296C34.5427 138.726 34.1075 142.515 33.7491 146.662C33.3907 150.758 32.8531 154.88 32.1363 159.027C31.4195 163.123 30.3955 166.886 29.0643 170.317C27.7843 173.696 25.7619 176.435 22.9971 178.534C20.2835 180.685 16.9299 181.76 12.9363 181.76C10.3251 181.76 8.0723 181.248 6.1779 180.224C4.3347 179.251 3.0035 177.946 2.1843 176.307C1.1603 174.208 0.6483 172.211 0.6483 170.317C0.6483 168.422 0.9299 166.63 1.4931 164.941C2.0563 163.2 2.8243 161.536 3.7971 159.949C4.8211 158.31 6.1523 157.005 7.7907 156.032C9.4291 155.008 11.1699 154.496 13.0131 154.496C13.9859 154.496 14.6771 154.854 15.0867 155.571L15.3171 155.955C11.0163 155.955 7.6115 157.926 5.1027 161.869C3.4643 164.48 2.6451 167.168 2.6451 169.933C2.6451 170.803 2.7475 171.699 2.9523 172.621C3.6691 176.358 5.7171 178.611 9.0963 179.379C9.9155 179.584 10.7603 179.686 11.6307 179.686C14.7027 179.686 17.3139 178.637 19.4643 176.538C21.6147 174.438 23.2531 171.725 24.3795 168.397C25.5059 165.018 26.4531 161.306 27.2211 157.261C27.9891 153.165 28.6803 149.094 29.2947 145.05C29.9091 140.954 30.6259 137.242 31.4451 133.914C32.2643 130.534 33.4419 127.795 34.9779 125.696C36.5651 123.597 38.5107 122.547 40.8147 122.547ZM57.0195 112.717C58.7091 112.717 59.5539 113.715 59.5539 115.712C59.5539 117.248 58.7347 118.682 57.0963 120.013C55.5091 121.293 52.9747 121.933 49.4931 121.933C46.0627 121.933 41.7363 121.088 36.5139 119.398C31.3427 117.709 27.2211 116.864 24.1491 116.864C17.5443 116.864 12.3987 119.501 8.7123 124.774C6.2035 128.358 4.9491 132.198 4.9491 136.294C4.9491 142.131 6.9459 145.997 10.9395 147.891C12.3219 148.557 13.8835 148.89 15.6243 148.89C15.6243 149.248 15.4195 149.632 15.0099 150.042C14.6003 150.451 14.1395 150.656 13.6275 150.656C8.2515 150.656 4.5139 148.429 2.4147 143.974C1.4419 141.875 0.9555 139.674 0.9555 137.37C0.9555 135.066 1.4163 132.634 2.3379 130.074C4.3347 124.544 7.8931 120.448 13.0131 117.786C16.3411 116.096 19.8483 115.251 23.5347 115.251C27.2723 115.251 31.5219 115.994 36.2835 117.478C41.0451 118.912 44.8851 119.629 47.8035 119.629C52.2067 119.629 54.7411 118.605 55.4067 116.557C55.7651 115.584 55.6627 114.944 55.0995 114.637C54.9971 114.586 54.9203 114.56 54.8691 114.56C55.1763 113.331 55.8931 112.717 57.0195 112.717ZM61.9368 113.408C64.2408 113.408 65.3928 114.944 65.3928 118.016C65.3928 118.784 65.316 119.68 65.1624 120.704C64.3944 125.568 62.372 130.586 59.0952 135.757C56.74 139.494 54.5128 141.85 52.4136 142.822C51.3896 148.352 50.4936 153.37 49.7256 157.875H50.2632C54.564 148.301 58.916 143.514 63.3192 143.514C64.9064 143.514 66.1352 144 67.0056 144.973C67.9272 145.946 68.388 147.277 68.388 148.966C68.388 150.656 67.7224 154.368 66.3912 160.102C65.06 165.786 64.3944 169.754 64.3944 172.006C64.3944 175.334 65.0088 176.998 66.2376 176.998C66.2376 177.357 66.0072 177.715 65.5464 178.074C65.0856 178.432 64.548 178.611 63.9336 178.611C60.964 178.611 59.4792 176.282 59.4792 171.622C59.4792 168.755 60.2216 164.506 61.7064 158.874C63.2424 153.19 64.0104 149.53 64.0104 147.891C64.0104 146.253 63.3704 145.434 62.0904 145.434C60.6056 145.434 58.9672 146.688 57.1752 149.197C55.3832 151.706 53.7192 154.906 52.1832 158.797C49.6232 165.043 47.7032 170.266 46.4232 174.464C46.116 175.488 45.6808 176 45.1176 176C44.196 176 43.5048 175.437 43.044 174.31C42.788 173.696 42.66 173.056 42.66 172.39C42.66 171.674 42.8648 170.394 43.2744 168.55C43.684 166.656 44.3752 163.354 45.348 158.643C46.2696 153.933 47.0632 150.042 47.7288 146.97C48.3944 143.846 49.1624 140.365 50.0328 136.525C50.9032 132.634 51.7224 129.485 52.4904 127.078C53.3096 124.621 54.2312 122.266 55.2552 120.013C57.2008 115.61 59.428 113.408 61.9368 113.408ZM63.6264 118.17C63.6264 116.531 63.1656 115.533 62.244 115.174C59.2232 115.174 56.1 123.622 52.8744 140.518C54.9224 139.085 57.0472 136.218 59.2488 131.917C62.1672 126.131 63.6264 121.549 63.6264 118.17ZM79.92 164.787C79.92 170.982 82.1216 174.08 86.5248 174.08C88.1632 174.08 89.8784 173.363 91.6704 171.93C93.5136 170.445 95.1776 168.678 96.6624 166.63C99.9392 161.92 102.243 158.08 103.574 155.11L104.573 152.96H106.646C105.776 155.008 104.496 157.542 102.806 160.563C101.117 163.533 99.504 166.042 97.968 168.09C96.432 170.138 94.6144 172.006 92.5152 173.696C90.416 175.334 88.4192 176.154 86.5248 176.154C78.9472 176.154 75.1584 171.904 75.1584 163.405C75.1584 159.462 76.3104 155.52 78.6144 151.578C81.7888 146.099 85.7056 143.36 90.3648 143.36C93.6416 143.36 95.28 145.152 95.28 148.736C95.28 151.398 94.256 154.163 92.208 157.03C89.3408 160.922 85.9872 162.893 82.1472 162.944C81.584 162.944 81.2256 162.688 81.072 162.176L80.9952 161.869C83.6576 161.869 86.192 160.128 88.5984 156.646C91.056 153.114 92.2848 150.17 92.2848 147.814C92.2848 146.227 91.6704 145.434 90.4416 145.434C87.728 145.434 85.1936 147.814 82.8384 152.576C80.8928 156.621 79.92 160.691 79.92 164.787ZM156.01 149.274C154.576 148.966 153.399 148.48 152.477 147.814V146.355C153.501 147.021 154.755 147.507 156.24 147.814C157.776 138.394 158.928 132.787 159.696 130.995C160.464 129.203 161.232 127.642 162 126.31C163.536 123.802 165.61 122.547 168.221 122.547C168.938 122.547 169.424 122.854 169.68 123.469L169.757 123.853C168.528 123.853 167.453 124.262 166.531 125.082C165.61 125.901 164.867 126.899 164.304 128.077C163.792 129.254 163.331 130.893 162.922 132.992C162.256 136.32 161.795 139.341 161.539 142.054C161.283 144.768 161.155 146.202 161.155 146.355C161.155 146.918 161.104 147.456 161.002 147.968C163.203 147.661 165.175 147.072 166.915 146.202C167.223 143.078 168.067 140.339 169.45 137.984C170.832 135.578 172.573 134.374 174.672 134.374C175.952 134.374 176.592 135.066 176.592 136.448C176.592 139.162 175.056 141.875 171.984 144.589C171.319 145.203 170.602 145.766 169.834 146.278C169.68 147.354 169.603 148.326 169.603 149.197C169.603 152.986 170.525 154.88 172.368 154.88C172.317 155.494 171.882 155.802 171.063 155.802C169.68 155.802 168.631 155.059 167.914 153.574C167.197 152.09 166.839 150.195 166.839 147.891C164.995 148.71 162.999 149.222 160.848 149.427C159.568 160.333 157.93 167.68 155.933 171.469C154.96 173.312 153.783 175.078 152.4 176.768C149.687 180.096 145.667 181.76 140.343 181.76C137.731 181.76 135.479 181.248 133.584 180.224C131.741 179.251 130.41 177.946 129.591 176.307C128.567 174.208 128.055 172.211 128.055 170.317C128.055 168.422 128.336 166.63 128.899 164.941C129.463 163.2 130.231 161.536 131.203 159.949C132.227 158.31 133.559 157.005 135.197 156.032C136.835 155.008 138.576 154.496 140.419 154.496C141.392 154.496 142.083 154.854 142.493 155.571L142.723 155.955C138.423 155.955 135.018 157.926 132.509 161.869C130.871 164.48 130.051 167.168 130.051 169.933C130.051 170.803 130.154 171.699 130.359 172.621C131.075 176.358 133.123 178.611 136.503 179.379C137.322 179.584 138.423 179.686 139.805 179.686C141.187 179.686 142.647 179.302 144.183 178.534C145.719 177.818 147.05 176.666 148.176 175.078C149.303 173.44 150.25 171.802 151.018 170.163C151.837 168.525 152.579 166.374 153.245 163.712C154.167 159.718 155.088 154.906 156.01 149.274ZM186.653 113.331C188.343 113.331 189.187 114.33 189.187 116.326C189.187 117.862 188.368 119.296 186.73 120.627C185.143 121.907 182.608 122.547 179.127 122.547C175.696 122.547 171.011 121.6 165.072 119.706C159.133 117.811 154.627 116.864 151.555 116.864C144.951 116.864 139.805 119.501 136.119 124.774C133.61 128.358 132.355 132.198 132.355 136.294C132.355 142.131 134.352 145.997 138.346 147.891C139.728 148.557 141.29 148.89 143.031 148.89C143.031 149.248 142.826 149.632 142.416 150.042C142.007 150.451 141.546 150.656 141.034 150.656C135.658 150.656 131.92 148.429 129.821 143.974C128.848 141.875 128.362 139.674 128.362 137.37C128.362 135.066 128.823 132.634 129.744 130.074C131.741 124.544 135.299 120.448 140.419 117.786C143.747 116.096 147.255 115.251 150.941 115.251C154.679 115.251 159.287 116.096 164.765 117.786C170.295 119.424 174.519 120.243 177.437 120.243C181.84 120.243 184.375 119.219 185.04 117.171C185.399 116.198 185.296 115.558 184.733 115.251C184.631 115.2 184.554 115.174 184.503 115.174C184.81 113.946 185.527 113.331 186.653 113.331ZM174.595 135.834C173.725 135.834 172.88 136.653 172.061 138.291C171.242 139.878 170.602 141.824 170.141 144.128C172.701 142.08 174.314 139.878 174.979 137.523C175.082 137.114 175.133 136.73 175.133 136.371C175.133 136.013 174.954 135.834 174.595 135.834ZM202.927 174.157C204.258 174.157 206.127 172.39 208.534 168.858C210.94 165.325 213.014 161.792 214.754 158.259L217.366 152.96H219.439C219.132 153.574 218.722 154.419 218.21 155.494C217.75 156.518 216.802 158.387 215.369 161.101C213.935 163.763 212.553 166.118 211.222 168.166C209.942 170.214 208.482 172.083 206.844 173.773C205.257 175.411 203.746 176.23 202.313 176.23C200.879 176.23 199.702 175.795 198.78 174.925C197.654 173.798 197.09 171.827 197.09 169.011C197.09 166.195 197.577 162.483 198.55 157.875H198.012C192.124 169.958 187.234 176 183.343 176C179.913 176 178.198 173.773 178.198 169.318C178.198 166.093 179.58 159.667 182.345 150.042C182.959 147.84 183.42 146.202 183.727 145.126C184.034 144 184.521 143.437 185.186 143.437C186.108 143.437 186.774 144.102 187.183 145.434C187.388 145.997 187.49 146.714 187.49 147.584C187.49 148.403 187.362 149.325 187.106 150.349C186.85 151.322 186.313 153.216 185.494 156.032C183.292 163.61 182.191 168.704 182.191 171.315C182.191 173.005 182.703 173.85 183.727 173.85C185.007 173.85 186.518 172.698 188.258 170.394C190.102 167.987 191.612 165.658 192.79 163.405C193.967 161.152 194.914 159.309 195.631 157.875C196.348 156.442 197.065 154.957 197.782 153.421C198.498 151.834 199.062 150.528 199.471 149.504C199.932 148.48 200.367 147.507 200.777 146.586C201.186 145.613 201.391 145.101 201.391 145.05C201.852 143.974 202.364 143.437 202.927 143.437C203.849 143.437 204.514 144.102 204.924 145.434C205.129 146.048 205.231 146.79 205.231 147.661C205.231 148.531 205.129 149.453 204.924 150.426C204.719 151.347 204.386 152.73 203.926 154.573C203.465 156.416 203.106 157.926 202.85 159.104C202.594 160.282 202.287 161.715 201.929 163.405C201.417 166.221 201.161 168.73 201.161 170.931C201.161 173.082 201.75 174.157 202.927 174.157ZM216.254 176C214.821 176 214.104 174.899 214.104 172.698C214.104 171.52 215.537 162.944 218.405 146.97C218.558 145.894 219.019 145.357 219.787 145.357C220.709 145.357 221.4 146.022 221.861 147.354C222.117 148.07 222.245 148.864 222.245 149.734C222.245 150.554 222.142 151.45 221.937 152.422L220.709 158.566H221.169C225.777 148.224 230.181 143.053 234.379 143.053C236.017 143.053 237.272 143.565 238.142 144.589C239.013 145.562 239.448 146.918 239.448 148.659C239.448 150.4 238.757 154.163 237.374 159.949C235.992 165.734 235.301 169.754 235.301 172.006C235.301 175.334 235.915 176.998 237.144 176.998C237.144 177.357 236.913 177.715 236.453 178.074C235.992 178.432 235.454 178.611 234.84 178.611C231.87 178.611 230.385 176.282 230.385 171.622C230.385 168.755 231.153 164.429 232.689 158.643C234.277 152.806 235.07 149.094 235.07 147.507C235.07 145.869 234.43 145.05 233.15 145.05C231.307 145.05 229.08 147.456 226.469 152.269C223.909 157.082 221.835 161.69 220.248 166.093C218.712 170.445 217.816 173.184 217.56 174.31C217.355 175.437 216.92 176 216.254 176ZM267.079 178.688C273.94 178.688 279.547 175.283 283.899 168.474C287.483 162.944 289.275 157.056 289.275 150.81C289.275 146.765 288.302 144.256 286.356 143.283C285.895 143.027 285.409 142.899 284.897 142.899C285.358 141.517 286.177 140.826 287.355 140.826C290.324 140.826 292.219 142.746 293.038 146.586C293.345 147.968 293.499 149.427 293.499 150.963C293.499 154.445 292.705 158.259 291.118 162.406C288.353 169.472 284.308 174.515 278.983 177.536C276.731 178.867 274.324 179.686 271.764 179.994C271.918 180.045 272.507 180.378 273.531 180.992C274.606 181.606 275.399 182.016 275.911 182.221C276.423 182.426 277.217 182.707 278.292 183.066C280.135 183.782 282.491 184.141 285.358 184.141C288.276 184.141 290.222 183.066 291.195 180.915C291.758 179.738 291.783 178.97 291.271 178.611C291.169 178.56 291.067 178.534 290.964 178.534C291.067 177.869 291.451 177.536 292.116 177.536C292.987 177.536 293.422 178.15 293.422 179.379C293.422 182.042 292.219 184.294 289.812 186.138C288.174 187.418 286.126 188.058 283.668 188.058C281.211 188.058 278.855 187.418 276.603 186.138C274.35 184.858 272.302 183.578 270.459 182.298C268.616 181.018 266.9 180.378 265.313 180.378C265.518 179.251 266.107 178.688 267.079 178.688ZM284.436 144.819C281.569 144.819 279.035 147.098 276.833 151.654C274.683 156.211 273.607 160.742 273.607 165.248C273.607 169.754 274.939 172.006 277.601 172.006C277.499 172.826 276.91 173.235 275.835 173.235C272.353 173.235 270.228 171.187 269.46 167.091C269.307 165.965 269.23 164.838 269.23 163.712C269.23 160.486 270.024 157.03 271.611 153.344C273.71 148.429 276.372 145.382 279.598 144.205C280.417 143.949 281.134 143.821 281.748 143.821C282.875 143.821 283.771 144.154 284.436 144.819ZM322.927 174.157C324.258 174.157 326.127 172.39 328.534 168.858C330.94 165.325 333.014 161.792 334.754 158.259L337.366 152.96H339.439C339.132 153.574 338.722 154.419 338.21 155.494C337.75 156.518 336.802 158.387 335.369 161.101C333.935 163.763 332.553 166.118 331.222 168.166C329.942 170.214 328.482 172.083 326.844 173.773C325.257 175.411 323.746 176.23 322.313 176.23C320.879 176.23 319.702 175.795 318.78 174.925C317.654 173.798 317.09 171.827 317.09 169.011C317.09 166.195 317.577 162.483 318.55 157.875H318.012C312.124 169.958 307.234 176 303.343 176C299.913 176 298.198 173.773 298.198 169.318C298.198 166.093 299.58 159.667 302.345 150.042C302.959 147.84 303.42 146.202 303.727 145.126C304.034 144 304.521 143.437 305.186 143.437C306.108 143.437 306.774 144.102 307.183 145.434C307.388 145.997 307.49 146.714 307.49 147.584C307.49 148.403 307.362 149.325 307.106 150.349C306.85 151.322 306.313 153.216 305.494 156.032C303.292 163.61 302.191 168.704 302.191 171.315C302.191 173.005 302.703 173.85 303.727 173.85C305.007 173.85 306.518 172.698 308.258 170.394C310.102 167.987 311.612 165.658 312.79 163.405C313.967 161.152 314.914 159.309 315.631 157.875C316.348 156.442 317.065 154.957 317.782 153.421C318.498 151.834 319.062 150.528 319.471 149.504C319.932 148.48 320.367 147.507 320.777 146.586C321.186 145.613 321.391 145.101 321.391 145.05C321.852 143.974 322.364 143.437 322.927 143.437C323.849 143.437 324.514 144.102 324.924 145.434C325.129 146.048 325.231 146.79 325.231 147.661C325.231 148.531 325.129 149.453 324.924 150.426C324.719 151.347 324.386 152.73 323.926 154.573C323.465 156.416 323.106 157.926 322.85 159.104C322.594 160.282 322.287 161.715 321.929 163.405C321.417 166.221 321.161 168.73 321.161 170.931C321.161 173.082 321.75 174.157 322.927 174.157ZM345.624 129.997C346.801 129.997 347.39 130.79 347.39 132.378C347.39 133.965 346.622 135.245 345.086 136.218C344.318 136.73 343.653 136.986 343.089 136.986C342.27 136.986 341.784 136.73 341.63 136.218L341.553 135.987C342.014 135.987 342.347 135.501 342.552 134.528C342.757 133.504 343.064 132.506 343.473 131.533C343.934 130.509 344.651 129.997 345.624 129.997ZM340.709 174.157C342.04 174.157 343.909 172.39 346.315 168.858C348.721 165.325 350.795 161.792 352.536 158.259L355.147 152.96H357.221C356.913 153.574 356.504 154.419 355.992 155.494C355.531 156.518 354.584 158.387 353.15 161.101C351.717 163.763 350.334 166.118 349.003 168.166C347.723 170.214 346.264 172.083 344.625 173.773C343.038 175.411 341.656 176.23 340.478 176.23C336.689 176.23 334.795 173.773 334.795 168.858C334.795 165.171 335.845 159.181 337.944 150.886C338.149 150.016 338.302 149.35 338.405 148.89C338.558 148.429 338.712 147.84 338.865 147.123C339.019 146.355 339.173 145.664 339.326 145.05C339.582 143.974 340.043 143.437 340.709 143.437C341.63 143.437 342.296 144.102 342.705 145.434C342.91 146.048 343.013 146.79 343.013 147.661C343.013 148.531 342.91 149.453 342.705 150.426C342.501 151.347 342.168 152.73 341.707 154.573C341.246 156.416 340.888 157.926 340.632 159.104C340.376 160.282 340.094 161.715 339.787 163.405C339.224 166.221 338.942 168.73 338.942 170.931C338.942 173.082 339.531 174.157 340.709 174.157ZM357.335 172.237C356.311 172.237 355.338 172.877 354.417 174.157C353.444 175.386 352.574 176 351.806 176C351.038 176 350.654 175.821 350.654 175.462C350.654 175.309 350.705 175.181 350.807 175.078C357.719 166.374 364.734 158.259 371.85 150.733C370.314 151.142 368.778 151.347 367.242 151.347C362.788 151.347 359.998 150.042 358.871 147.43C358.615 146.765 358.487 146.048 358.487 145.28C358.487 144.461 358.846 143.642 359.562 142.822C360.33 141.952 361.175 141.517 362.097 141.517C363.018 141.517 363.684 141.696 364.094 142.054C364.554 142.362 364.862 142.848 365.015 143.514C364.247 143.514 363.761 143.949 363.556 144.819C363.505 145.075 363.479 145.306 363.479 145.51C363.479 146.534 364.196 147.328 365.63 147.891C366.551 148.25 367.908 148.429 369.7 148.429C371.543 148.429 373.335 148.096 375.076 147.43C377.892 144.717 379.71 143.36 380.529 143.36C380.938 143.36 381.143 143.514 381.143 143.821C381.143 144.128 380.759 144.819 379.991 145.894C379.223 146.97 377.764 148.096 375.614 149.274C371.825 153.472 365.834 160.435 357.642 170.163C357.847 170.112 358.257 170.086 358.871 170.086C359.537 170.086 360.894 170.573 362.942 171.546C365.041 172.518 366.91 173.005 368.548 173.005C371.518 173.005 373.514 171.802 374.538 169.395C374.846 168.627 374.999 167.91 374.999 167.245C374.999 166.528 374.82 165.939 374.462 165.478C374.103 165.018 373.668 164.787 373.156 164.787C373.258 164.122 373.642 163.789 374.308 163.789C376.202 163.789 377.15 165.274 377.15 168.243C377.15 170.394 376.33 172.518 374.692 174.618C373.054 176.717 370.75 177.766 367.78 177.766C366.346 177.766 365.066 177.459 363.94 176.845C362.814 176.282 361.969 175.667 361.406 175.002C359.767 173.158 358.41 172.237 357.335 172.237ZM431.695 144.128C429.698 150.784 428.7 156.083 428.7 160.026C428.7 169.293 431.362 173.926 436.687 173.926C440.015 173.926 443.471 171.878 447.055 167.782C447.772 163.738 448.258 160.922 448.514 159.334C448.77 157.696 449.052 156.058 449.359 154.419C449.718 152.73 450.025 151.424 450.281 150.502C450.537 149.53 450.844 148.429 451.202 147.2C451.561 145.971 451.945 145.024 452.354 144.358C452.764 143.693 453.225 143.027 453.737 142.362C454.658 141.133 455.887 140.518 457.423 140.518C459.215 140.518 460.111 141.747 460.111 144.205C460.111 145.075 460.009 146.074 459.804 147.2C458.729 152.883 456.041 158.797 451.74 164.941C450.511 175.693 448.591 184.038 445.98 189.978C443.42 195.814 440.297 200.141 436.61 202.957C432.105 206.438 426.575 208.179 420.022 208.179C412.393 208.179 407.042 205.542 403.97 200.269C402.486 197.709 401.743 195.251 401.743 192.896C401.743 190.592 402.025 188.518 402.588 186.675C403.919 182.067 406.454 178.816 410.191 176.922C411.983 176.051 413.903 175.616 415.951 175.616C421.378 175.616 425.09 177.715 427.087 181.914C427.958 183.757 428.393 185.523 428.393 187.213C428.393 188.902 428.086 190.515 427.471 192.051C426.14 195.584 423.964 197.35 420.943 197.35C420.482 197.35 420.073 197.222 419.714 196.966C419.356 196.71 419.074 196.352 418.87 195.891C421.174 195.891 422.966 194.33 424.246 191.206C424.86 189.67 425.167 188.109 425.167 186.522C425.167 184.986 424.809 183.398 424.092 181.76C422.71 178.637 419.919 177.075 415.721 177.075C411.522 177.075 408.22 179.098 405.814 183.142C404.175 185.856 403.356 188.698 403.356 191.667C403.356 192.896 403.51 194.15 403.817 195.43C404.892 200.243 407.657 203.494 412.111 205.184C414.108 205.952 416.642 206.336 419.714 206.336C422.786 206.336 425.756 205.619 428.623 204.186C431.542 202.803 433.922 201.037 435.766 198.886C437.66 196.787 439.324 194.074 440.758 190.746C442.242 187.469 443.394 184.346 444.214 181.376C445.033 178.406 445.801 174.95 446.518 171.008C443.036 174.234 439.708 175.846 436.534 175.846C433.41 175.846 430.799 174.925 428.7 173.082C426.652 171.187 425.346 168.934 424.783 166.323C424.22 163.712 423.938 161.178 423.938 158.72C423.938 153.907 424.783 148.813 426.473 143.437C423.503 142.72 421.046 141.414 419.1 139.52C417.206 137.574 415.977 135.629 415.414 133.683C414.902 131.738 414.646 130.125 414.646 128.845C414.646 121.83 417.078 116.762 421.942 113.638C424.041 112.256 426.37 111.565 428.93 111.565C429.698 111.565 430.108 111.872 430.159 112.486L430.236 112.794C427.727 112.794 425.449 113.408 423.401 114.637C419.458 116.992 417.103 120.678 416.335 125.696C416.233 126.566 416.182 127.565 416.182 128.691C416.182 129.766 416.412 131.174 416.873 132.915C417.334 134.656 418.46 136.397 420.252 138.138C422.044 139.827 424.297 141.005 427.01 141.67C429.724 133.837 433.538 127.206 438.454 121.779C443.369 116.301 448.642 113.562 454.274 113.562C458.524 113.562 460.649 115.789 460.649 120.243C460.649 123.418 459.343 126.925 456.732 130.765C452.994 136.346 448.028 140.262 441.833 142.515C438.761 143.59 435.586 144.128 432.31 144.128H431.695ZM453.43 115.328C449.538 115.328 445.647 117.965 441.756 123.238C437.916 128.512 434.767 134.861 432.31 142.285H432.386C439.862 142.285 446.21 139.469 451.433 133.837C455.58 129.28 457.654 124.723 457.654 120.166C457.654 117.658 456.706 116.096 454.812 115.482C454.402 115.379 453.942 115.328 453.43 115.328ZM457.039 142.899C455.759 142.899 454.812 144.154 454.198 146.662C453.583 149.171 453.122 151.987 452.815 155.11C452.508 158.182 452.329 159.923 452.278 160.333C455.452 154.803 457.321 150.016 457.884 145.971C457.986 145.459 458.038 145.024 458.038 144.666C458.038 143.488 457.705 142.899 457.039 142.899ZM470.057 176.077C466.012 176.077 463.989 173.03 463.989 166.938C463.989 163.405 464.911 159.539 466.754 155.341C469.314 149.658 472.565 145.946 476.508 144.205C477.89 143.642 479.273 143.36 480.655 143.36C482.089 143.36 483.215 143.77 484.034 144.589C484.853 145.408 485.263 146.33 485.263 147.354C485.263 147.814 485.007 148.045 484.495 148.045C484.034 147.994 483.804 147.738 483.804 147.277C483.804 146.816 483.548 146.406 483.036 146.048C482.575 145.638 481.884 145.434 480.962 145.434C477.737 145.434 474.818 148.326 472.207 154.112C469.749 159.488 468.521 164.582 468.521 169.395C468.521 172.365 469.161 173.85 470.441 173.85C471.772 173.85 473.359 172.749 475.202 170.547C477.097 168.294 478.837 165.683 480.425 162.714C483.855 156.467 485.877 152.448 486.492 150.656C487.106 148.864 487.772 147.968 488.489 147.968C489.769 147.968 490.409 149.043 490.409 151.194C490.409 151.859 490.332 152.627 490.178 153.498C488.489 161.69 487.567 166.426 487.413 167.706C487.311 168.986 487.26 169.907 487.26 170.47C487.26 172.928 487.849 174.157 489.026 174.157C490.357 174.157 492.226 172.39 494.633 168.858C497.039 165.325 499.113 161.792 500.853 158.259L503.465 152.96H505.538C505.231 153.574 504.821 154.419 504.309 155.494C503.849 156.518 502.901 158.387 501.468 161.101C500.034 163.763 498.652 166.118 497.321 168.166C496.041 170.214 494.581 172.083 492.943 173.773C491.356 175.411 489.973 176.23 488.796 176.23C485.007 176.23 483.113 173.466 483.113 167.936C483.113 166.093 483.317 163.942 483.727 161.485H483.189C477.967 171.213 473.589 176.077 470.057 176.077ZM502.192 176C500.758 176 500.041 174.899 500.041 172.698C500.041 171.52 501.475 162.944 504.342 146.97C504.496 145.894 504.957 145.357 505.725 145.357C506.646 145.357 507.337 146.022 507.798 147.354C508.054 148.07 508.182 148.864 508.182 149.734C508.182 150.554 508.08 151.45 507.875 152.422L506.723 158.259H507.184C511.689 148.122 516.041 143.053 520.24 143.053C521.673 143.053 522.8 143.565 523.619 144.589C524.489 145.613 524.925 146.842 524.925 148.275C524.925 150.938 524.515 154.266 523.696 158.259H524.003C528.355 148.787 532.63 144.051 536.829 144.051C538.211 144.051 539.337 144.563 540.208 145.587C541.078 146.611 541.513 147.968 541.513 149.658C541.513 151.347 540.848 154.931 539.517 160.41C538.237 165.888 537.597 169.754 537.597 172.006C537.597 175.334 538.211 176.998 539.44 176.998C539.44 177.357 539.209 177.715 538.749 178.074C538.288 178.432 537.75 178.611 537.136 178.611C534.166 178.611 532.681 176.282 532.681 171.622C532.681 168.704 533.424 164.506 534.909 159.027C536.393 153.498 537.136 149.965 537.136 148.429C537.136 146.842 536.624 146.048 535.6 146.048C533.705 146.048 531.478 148.352 528.918 152.96C526.409 157.517 524.387 161.894 522.851 166.093C521.366 170.291 520.496 173.005 520.24 174.234C519.984 175.411 519.523 176 518.857 176C517.424 176 516.707 174.899 516.707 172.698C516.707 171.878 517.142 168.986 518.013 164.019C519.702 154.906 520.547 149.478 520.547 147.738C520.547 145.946 520.035 145.05 519.011 145.05C517.629 145.05 516.016 146.483 514.173 149.35C512.329 152.166 510.665 155.443 509.181 159.181C505.955 167.066 504.061 172.16 503.497 174.464C503.293 175.488 502.857 176 502.192 176ZM552.607 164.787C552.607 170.982 554.809 174.08 559.212 174.08C560.851 174.08 562.566 173.363 564.358 171.93C566.201 170.445 567.865 168.678 569.35 166.63C572.627 161.92 574.931 158.08 576.262 155.11L577.26 152.96H579.334C578.463 155.008 577.183 157.542 575.494 160.563C573.804 163.533 572.191 166.042 570.655 168.09C569.119 170.138 567.302 172.006 565.203 173.696C563.103 175.334 561.107 176.154 559.212 176.154C551.635 176.154 547.846 171.904 547.846 163.405C547.846 159.462 548.998 155.52 551.302 151.578C554.476 146.099 558.393 143.36 563.052 143.36C566.329 143.36 567.967 145.152 567.967 148.736C567.967 151.398 566.943 154.163 564.896 157.03C562.028 160.922 558.675 162.893 554.835 162.944C554.271 162.944 553.913 162.688 553.759 162.176L553.683 161.869C556.345 161.869 558.879 160.128 561.286 156.646C563.743 153.114 564.972 150.17 564.972 147.814C564.972 146.227 564.358 145.434 563.129 145.434C560.416 145.434 557.881 147.814 555.526 152.576C553.58 156.621 552.607 160.691 552.607 164.787ZM589.353 164.25C588.227 164.25 587.664 163.123 587.664 160.87C587.664 160.358 587.766 159.334 587.971 157.798C588.227 156.262 589.2 149.581 590.889 137.754C592.579 125.875 593.628 118.528 594.038 115.712C594.192 114.637 594.704 114.099 595.574 114.099C596.496 114.099 597.212 114.662 597.724 115.789C598.288 116.864 598.569 117.862 598.569 118.784C598.569 119.654 598.492 120.448 598.339 121.165C598.032 122.854 595.472 136.704 590.659 162.714C590.454 163.738 590.019 164.25 589.353 164.25ZM587.971 170.47C589.148 170.47 589.737 171.264 589.737 172.851C589.737 174.438 588.969 175.718 587.433 176.691C586.665 177.203 586 177.459 585.436 177.459C584.617 177.459 584.105 177.126 583.9 176.461C584.361 176.461 584.694 175.974 584.899 175.002C585.104 173.978 585.411 172.979 585.82 172.006C586.281 170.982 586.998 170.47 587.971 170.47Z" fill="#EEEEEE"/>
</svg>
